<svg width="18" height="18" viewBox="0 0 18 18" fill="none" xmlns="http://www.w3.org/2000/svg">
    <g opacity="0.9" clip-path="url(#clip0_2535_3061)">
        <path d="M16.1594 5.95451C15.9484 5.7436 15.6623 5.62512 15.364 5.62512C15.0657 5.62512 14.7796 5.7436 14.5686 5.95451L8.99988 11.5233L3.43113 5.95451C3.21896 5.74958 2.93478 5.63619 2.63981 5.63875C2.34484 5.64132 2.06267 5.75963 1.85409 5.96821C1.6455 6.1768 1.52719 6.45896 1.52463 6.75393C1.52206 7.04891 1.63546 7.33308 1.84039 7.54526L8.20451 13.9094C8.41548 14.1203 8.70158 14.2388 8.99988 14.2388C9.29819 14.2388 9.58429 14.1203 9.79526 13.9094L16.1594 7.54526C16.3703 7.33429 16.4888 7.04819 16.4888 6.74988C16.4888 6.45158 16.3703 6.16548 16.1594 5.95451Z" fill="black"/>
    </g>
    <defs>
        <clipPath id="clip0_2535_3061">
            <rect width="18" height="18" fill="white" transform="matrix(-1 0 0 -1 18 18)"/>
        </clipPath>
    </defs>
</svg>
