<svg width="15" height="14" viewBox="0 0 15 14" fill="none" xmlns="http://www.w3.org/2000/svg">
    <g opacity="0.5">
        <path d="M6.905 2.44989C7.54289 2.44989 8.06 1.93278 8.06 1.29489C8.06 0.657004 7.54289 0.139893 6.905 0.139893C6.26711 0.139893 5.75 0.657004 5.75 1.29489C5.75 1.93278 6.26711 2.44989 6.905 2.44989Z" fill="black"/>
        <path d="M9.71574 8.96005L8.06122 4.41369L8.0517 4.36693C8.0517 4.30057 8.10742 4.24681 8.17686 4.24681C8.23594 4.24681 8.2855 4.28629 8.29866 4.33893L9.42342 7.28005C9.49818 7.44833 9.80563 7.56005 10.0078 7.56005C10.278 7.56005 10.306 7.02945 10.3001 7.00005L9.17534 4.10009C9.07762 3.45021 8.4213 2.80005 7.6723 2.80005H6.2065C5.4575 2.80005 4.75246 3.45021 4.65474 4.10009L3.58038 7.00005C3.55602 7.05577 3.58038 7.56005 3.87242 7.56005C4.0995 7.56005 4.40162 7.48081 4.45678 7.28005L5.54178 4.32633C5.55104 4.30268 5.56728 4.28241 5.58834 4.2682C5.60939 4.254 5.63427 4.24654 5.65966 4.24681C5.72882 4.24681 5.78454 4.30057 5.78454 4.36665L5.7767 4.40949L4.16474 8.96005C4.16166 8.97349 4.16474 9.22633 4.16474 9.24005C4.16474 9.33693 4.39854 9.52005 4.50018 9.52005H5.5401V13.1866C5.5401 13.4778 5.79658 13.72 6.1001 13.72C6.40362 13.72 6.6601 13.4776 6.6601 13.1866V9.51753C6.6601 9.43829 7.2201 9.44081 7.2201 9.52005V13.16C7.2201 13.4512 7.47686 13.72 7.7801 13.72C8.08418 13.72 8.34011 13.451 8.34011 13.16V9.52005H9.42342C9.52478 9.52005 9.71574 9.33693 9.71574 9.24005C9.71574 9.21765 9.72386 8.97937 9.71574 8.96005Z" fill="black"/>
    </g>
</svg>
