<svg width="20" height="20" viewBox="0 0 20 20" fill="none" xmlns="http://www.w3.org/2000/svg">
    <g clip-path="url(#clip0_347_1465)">
        <path d="M7.49996 1.66675H2.49996C2.27895 1.66675 2.06698 1.75455 1.9107 1.91083C1.75442 2.06711 1.66663 2.27907 1.66663 2.50008V7.50008C1.66663 7.72109 1.75442 7.93306 1.9107 8.08934C2.06698 8.24562 2.27895 8.33341 2.49996 8.33341H7.49996C7.72097 8.33341 7.93293 8.24562 8.08921 8.08934C8.2455 7.93306 8.33329 7.72109 8.33329 7.50008V2.50008C8.33329 2.27907 8.2455 2.06711 8.08921 1.91083C7.93293 1.75455 7.72097 1.66675 7.49996 1.66675ZM7.49996 11.6667H2.49996C2.27895 11.6667 2.06698 11.7545 1.9107 11.9108C1.75442 12.0671 1.66663 12.2791 1.66663 12.5001V17.5001C1.66663 17.7211 1.75442 17.9331 1.9107 18.0893C2.06698 18.2456 2.27895 18.3334 2.49996 18.3334H7.49996C7.72097 18.3334 7.93293 18.2456 8.08921 18.0893C8.2455 17.9331 8.33329 17.7211 8.33329 17.5001V12.5001C8.33329 12.2791 8.2455 12.0671 8.08921 11.9108C7.93293 11.7545 7.72097 11.6667 7.49996 11.6667ZM17.5 1.66675H12.5C12.2789 1.66675 12.067 1.75455 11.9107 1.91083C11.7544 2.06711 11.6666 2.27907 11.6666 2.50008V7.50008C11.6666 7.72109 11.7544 7.93306 11.9107 8.08934C12.067 8.24562 12.2789 8.33341 12.5 8.33341H17.5C17.721 8.33341 17.9329 8.24562 18.0892 8.08934C18.2455 7.93306 18.3333 7.72109 18.3333 7.50008V2.50008C18.3333 2.27907 18.2455 2.06711 18.0892 1.91083C17.9329 1.75455 17.721 1.66675 17.5 1.66675Z" fill="black" stroke="black" stroke-width="2" stroke-linejoin="round"/>
        <path d="M7.49996 12H2.49996C2.27895 12 2.06698 12.0878 1.9107 12.2441C1.75442 12.4004 1.66663 12.6123 1.66663 12.8333V17.8333C1.66663 18.0543 1.75442 18.2663 1.9107 18.4226C2.06698 18.5789 2.27895 18.6667 2.49996 18.6667H7.49996C7.72097 18.6667 7.93293 18.5789 8.08921 18.4226C8.2455 18.2663 8.33329 18.0543 8.33329 17.8333V12.8333C8.33329 12.6123 8.2455 12.4004 8.08921 12.2441C7.93293 12.0878 7.72097 12 7.49996 12ZM7.49996 22H2.49996C2.27895 22 2.06698 22.0878 1.9107 22.2441C1.75442 22.4004 1.66663 22.6123 1.66663 22.8333V27.8333C1.66663 28.0543 1.75442 28.2663 1.9107 28.4226C2.06698 28.5789 2.27895 28.6667 2.49996 28.6667H7.49996C7.72097 28.6667 7.93293 28.5789 8.08921 28.4226C8.2455 28.2663 8.33329 28.0543 8.33329 27.8333V22.8333C8.33329 22.6123 8.2455 22.4004 8.08921 22.2441C7.93293 22.0878 7.72097 22 7.49996 22ZM17.5 12H12.5C12.2789 12 12.067 12.0878 11.9107 12.2441C11.7544 12.4004 11.6666 12.6123 11.6666 12.8333V17.8333C11.6666 18.0543 11.7544 18.2663 11.9107 18.4226C12.067 18.5789 12.2789 18.6667 12.5 18.6667H17.5C17.721 18.6667 17.9329 18.5789 18.0892 18.4226C18.2455 18.2663 18.3333 18.0543 18.3333 17.8333V12.8333C18.3333 12.6123 18.2455 12.4004 18.0892 12.2441C17.9329 12.0878 17.721 12 17.5 12Z" fill="black" stroke="black" stroke-width="2" stroke-linejoin="round"/>
    </g>
    <defs>
        <clipPath id="clip0_347_1465">
            <rect width="20" height="20" fill="white"/>
        </clipPath>
    </defs>
</svg>
