<svg width="11" height="11" viewBox="0 0 11 11" fill="none" xmlns="http://www.w3.org/2000/svg">
    <g opacity="0.8" clip-path="url(#clip0_402_3897)">
        <path d="M5.50001 2.52095L5.25251 2.75928C5.28457 2.79255 5.32302 2.81901 5.36554 2.83709C5.40807 2.85516 5.4538 2.86448 5.50001 2.86448C5.54621 2.86448 5.59194 2.85516 5.63447 2.83709C5.67699 2.81901 5.71544 2.79255 5.74751 2.75928L5.50001 2.52095ZM4.32026 8.3977C3.62542 7.84999 2.86596 7.31512 2.26326 6.63678C1.67292 5.97128 1.26042 5.19532 1.26042 4.18791H0.572922C0.572922 5.40982 1.08167 6.34207 1.74946 7.09328C2.40488 7.8312 3.24088 8.42245 3.89446 8.93762L4.32071 8.3977H4.32026ZM1.26042 4.18791C1.26042 3.20249 1.8173 2.37566 2.57767 2.02778C3.31651 1.68999 4.30926 1.77937 5.25251 2.75928L5.74751 2.28307C4.62917 1.12028 3.32934 0.928241 2.29167 1.40262C1.27692 1.86691 0.572922 2.94491 0.572922 4.18791H1.26042ZM3.89446 8.93762C4.12959 9.12278 4.38167 9.31987 4.63696 9.46928C4.89225 9.61824 5.18376 9.7397 5.50001 9.7397V9.0522C5.35792 9.0522 5.19109 8.9972 4.98392 8.87574C4.7763 8.75474 4.56134 8.58791 4.32026 8.3977L3.89446 8.93762ZM7.10555 8.93762C7.75913 8.42199 8.59513 7.83166 9.25055 7.09328C9.91834 6.34162 10.4271 5.40982 10.4271 4.18791H9.73959C9.73959 5.19532 9.32709 5.97128 8.73676 6.63678C8.13405 7.31512 7.37459 7.84999 6.67976 8.3977L7.10555 8.93762ZM10.4271 4.18791C10.4271 2.94491 9.72355 1.86691 8.70834 1.40262C7.67067 0.928241 6.37176 1.12028 5.25251 2.28262L5.74751 2.75928C6.69076 1.77982 7.68351 1.68999 8.42234 2.02778C9.18271 2.37566 9.73959 3.20203 9.73959 4.18791H10.4271ZM6.67976 8.3977C6.43867 8.58791 6.22371 8.75474 6.01609 8.87574C5.80892 8.99674 5.64209 9.0522 5.50001 9.0522V9.7397C5.81626 9.7397 6.10776 9.61824 6.36305 9.46928C6.6188 9.31987 6.87042 9.12278 7.10555 8.93762L6.67976 8.3977Z" fill="black"/>
    </g>
    <defs>
        <clipPath id="clip0_402_3897">
            <rect width="11" height="11" fill="white"/>
        </clipPath>
    </defs>
</svg>
