<svg width="17" height="17" viewBox="0 0 17 17" fill="none" xmlns="http://www.w3.org/2000/svg">
    <path d="M11.7794 0.578538C12.1076 0.250464 12.5526 0.0661621 13.0167 0.0661621C13.4807 0.0661621 13.9257 0.250464 14.2539 0.578538L16.4195 2.74416C16.5821 2.90668 16.7111 3.09963 16.7991 3.31199C16.8871 3.52436 16.9324 3.75198 16.9324 3.98185C16.9324 4.21172 16.8871 4.43935 16.7991 4.65171C16.7111 4.86408 16.5821 5.05703 16.4195 5.21954L6.01316 15.6259L0.430664 16.5674L1.37304 10.9849L11.7794 0.578538ZM11.579 3.25341L13.7447 5.41904L15.1823 3.98141L13.0167 1.81666L11.579 3.25341ZM12.5065 6.65716L10.3418 4.49154L3.00579 11.8275L2.56566 14.4324L5.17054 13.9932L12.5065 6.65716Z" fill="black"/>
</svg>
