<svg width="24" height="24" viewBox="0 0 24 24" fill="none" xmlns="http://www.w3.org/2000/svg">
    <g opacity="0.9">
        <path d="M16.0604 21.5459C16.3417 21.2646 16.4996 20.8832 16.4996 20.4854C16.4996 20.0877 16.3417 19.7062 16.0604 19.4249L8.63545 11.9999L16.0604 4.57493C16.3337 4.29202 16.4849 3.91312 16.4815 3.51982C16.478 3.12653 16.3203 2.75031 16.0422 2.4722C15.7641 2.19409 15.3878 2.03633 14.9946 2.03292C14.6013 2.0295 14.2224 2.18069 13.9395 2.45393L5.45395 10.9394C5.17274 11.2207 5.01477 11.6022 5.01477 11.9999C5.01477 12.3977 5.17274 12.7791 5.45395 13.0604L13.9395 21.5459C14.2207 21.8271 14.6022 21.9851 15 21.9851C15.3977 21.9851 15.7792 21.8271 16.0604 21.5459Z" fill="black"/>
    </g>
</svg>
