<svg width="20" height="20" viewBox="0 0 20 20" fill="none" xmlns="http://www.w3.org/2000/svg">
    <g clip-path="url(#clip0_242_8606)">
        <path d="M7.49996 1.66675H2.49996C2.27895 1.66675 2.06698 1.75455 1.9107 1.91083C1.75442 2.06711 1.66663 2.27907 1.66663 2.50008V7.50008C1.66663 7.7211 1.75442 7.93306 1.9107 8.08934C2.06698 8.24562 2.27895 8.33341 2.49996 8.33341H7.49996C7.72097 8.33341 7.93293 8.24562 8.08921 8.08934C8.24549 7.93306 8.33329 7.7211 8.33329 7.50008V2.50008C8.33329 2.27907 8.24549 2.06711 8.08921 1.91083C7.93293 1.75455 7.72097 1.66675 7.49996 1.66675ZM7.49996 11.6667H2.49996C2.27895 11.6667 2.06698 11.7545 1.9107 11.9108C1.75442 12.0671 1.66663 12.2791 1.66663 12.5001V17.5001C1.66663 17.7211 1.75442 17.9331 1.9107 18.0893C2.06698 18.2456 2.27895 18.3334 2.49996 18.3334H7.49996C7.72097 18.3334 7.93293 18.2456 8.08921 18.0893C8.24549 17.9331 8.33329 17.7211 8.33329 17.5001V12.5001C8.33329 12.2791 8.24549 12.0671 8.08921 11.9108C7.93293 11.7545 7.72097 11.6667 7.49996 11.6667ZM17.5 1.66675H12.5C12.2789 1.66675 12.067 1.75455 11.9107 1.91083C11.7544 2.06711 11.6666 2.27907 11.6666 2.50008V7.50008C11.6666 7.7211 11.7544 7.93306 11.9107 8.08934C12.067 8.24562 12.2789 8.33341 12.5 8.33341H17.5C17.721 8.33341 17.9329 8.24562 18.0892 8.08934C18.2455 7.93306 18.3333 7.7211 18.3333 7.50008V2.50008C18.3333 2.27907 18.2455 2.06711 18.0892 1.91083C17.9329 1.75455 17.721 1.66675 17.5 1.66675Z" fill="black" stroke="black" stroke-width="2" stroke-linejoin="round"/>
        <path d="M11.6666 11.6667H18.3333M15 15.0001H18.3333M11.6666 18.3334H18.3333" stroke="black" stroke-width="2" stroke-linecap="round" stroke-linejoin="round"/>
    </g>
    <defs>
        <clipPath id="clip0_242_8606">
            <rect width="20" height="20" fill="white"/>
        </clipPath>
    </defs>
</svg>
