<svg width="5" height="14" viewBox="0 0 5 14" fill="none" xmlns="http://www.w3.org/2000/svg">
    <g opacity="0.4" clip-path="url(#clip0_395_3027)">
        <path d="M2.5 0C3.42047 0 4.16667 0.783508 4.16667 1.75C4.16667 2.71649 3.42047 3.5 2.5 3.5C1.57953 3.5 0.833333 2.71649 0.833333 1.75C0.833333 0.783508 1.57953 0 2.5 0ZM3.75 3.9375H3.45417C2.86273 4.22305 2.16276 4.23538 1.54583 3.9375H1.25C0.559635 3.9375 0 4.52512 0 5.25V8.96875C0 9.33119 0.279818 9.625 0.625 9.625H1.04167V13.3438C1.04167 13.7062 1.32148 14 1.66667 14H3.33333C3.67852 14 3.95833 13.7062 3.95833 13.3438V9.625H4.375C4.72018 9.625 5 9.33119 5 8.96875V5.25C5 4.52512 4.44036 3.9375 3.75 3.9375Z" fill="black"/>
    </g>
    <defs>
        <clipPath id="clip0_395_3027">
            <rect width="5" height="14" fill="white"/>
        </clipPath>
    </defs>
</svg>
