<svg width="20" height="22" viewBox="0 0 20 22" fill="none" xmlns="http://www.w3.org/2000/svg">
    <path opacity="0.5" d="M12.5333 6.38208e-08C12.9997 0.000119746 13.4543 0.145514 13.8326 0.415588C14.2109 0.685663 14.4937 1.06673 14.6411 1.5048L15.2444 3.3H18.8889C19.1836 3.3 19.4662 3.41589 19.6746 3.62218C19.8829 3.82847 20 4.10826 20 4.4C20 4.69174 19.8829 4.97153 19.6746 5.17782C19.4662 5.38411 19.1836 5.5 18.8889 5.5L18.8856 5.5781L17.9222 18.9354C17.8621 19.7677 17.4858 20.5465 16.8689 21.1151C16.2521 21.6837 15.4406 21.9999 14.5978 22H5.40222C4.5594 21.9999 3.7479 21.6837 3.13107 21.1151C2.51425 20.5465 2.1379 19.7677 2.07778 18.9354L1.11444 5.577C1.11243 5.55138 1.11132 5.5257 1.11111 5.5C0.816426 5.5 0.533811 5.38411 0.325437 5.17782C0.117063 4.97153 0 4.69174 0 4.4C0 4.10826 0.117063 3.82847 0.325437 3.62218C0.533811 3.41589 0.816426 3.3 1.11111 3.3H4.75556L5.35889 1.5048C5.50633 1.06655 5.78937 0.685357 6.16789 0.415267C6.5464 0.145176 7.00119 -0.000111167 7.46778 6.38208e-08H12.5333ZM16.6633 5.5H3.33667L4.29444 18.7781C4.31439 19.0555 4.43975 19.3152 4.64529 19.5048C4.85083 19.6944 5.12128 19.7999 5.40222 19.8H14.5978C14.8787 19.7999 15.1492 19.6944 15.3547 19.5048C15.5603 19.3152 15.6856 19.0555 15.7056 18.7781L16.6633 5.5ZM7.77778 8.8C8.04993 8.80004 8.3126 8.89895 8.51597 9.07799C8.71934 9.25702 8.84927 9.50372 8.88111 9.7713L8.88889 9.9V15.4C8.88858 15.6804 8.78014 15.95 8.58572 16.1539C8.39131 16.3578 8.12561 16.4805 7.8429 16.4969C7.56018 16.5133 7.2818 16.4223 7.06463 16.2423C6.84746 16.0624 6.70789 15.8071 6.67444 15.5287L6.66667 15.4V9.9C6.66667 9.60826 6.78373 9.32847 6.9921 9.12218C7.20048 8.91589 7.48309 8.8 7.77778 8.8ZM12.2222 8.8C12.5169 8.8 12.7995 8.91589 13.0079 9.12218C13.2163 9.32847 13.3333 9.60826 13.3333 9.9V15.4C13.3333 15.6917 13.2163 15.9715 13.0079 16.1778C12.7995 16.3841 12.5169 16.5 12.2222 16.5C11.9275 16.5 11.6449 16.3841 11.4365 16.1778C11.2282 15.9715 11.1111 15.6917 11.1111 15.4V9.9C11.1111 9.60826 11.2282 9.32847 11.4365 9.12218C11.6449 8.91589 11.9275 8.8 12.2222 8.8ZM12.5333 2.2H7.46667L7.09667 3.3H12.9033L12.5333 2.2Z" fill="black"/>
</svg>
