<svg width="11" height="11" viewBox="0 0 11 11" fill="none" xmlns="http://www.w3.org/2000/svg">
    <g opacity="0.6">
        <path d="M3.63897 1.12487C3.51008 1.2538 3.43767 1.42864 3.43767 1.61094C3.43767 1.79324 3.51008 1.96807 3.63897 2.097L7.04209 5.50012L3.63897 8.90325C3.51373 9.03291 3.44444 9.20658 3.446 9.38684C3.44757 9.5671 3.51987 9.73953 3.64734 9.867C3.77481 9.99447 3.94724 10.0668 4.1275 10.0683C4.30776 10.0699 4.48143 10.0006 4.61109 9.87537L8.50028 5.98619C8.62916 5.85726 8.70157 5.68243 8.70157 5.50012C8.70157 5.31782 8.62916 5.14299 8.50028 5.01406L4.61109 1.12487C4.48216 0.995988 4.30733 0.923584 4.12503 0.923584C3.94273 0.923584 3.76789 0.995988 3.63897 1.12487Z" fill="black"/>
    </g>
</svg>
